<svg width="150" height="150" viewBox="0 0 150 150" fill="none" xmlns="http://www.w3.org/2000/svg">
<rect width="150" height="150" fill="white"/>
<path d="M54 37.3023L63.0132 22H115L106.47 37.9535H72.3483L63.0132 54.0698H96.8127L87.9604 69.6977H71.7045L63.0132 85L54 69.2093L63.0132 54.0698L54 37.3023Z" fill="#33CC33"/>
<path d="M54 37.3023L63.0132 22H115L106.47 37.9535H72.3483L63.0132 54.0698H96.8127L87.9604 69.6977H71.7045L63.0132 85L54 69.2093L63.0132 54.0698L54 37.3023Z" fill="#33CC33"/>
<path d="M60.9512 101.344C60.7699 100.768 60.5832 100.155 60.3912 99.504C60.2099 98.8533 60.0285 98.208 59.8472 97.568C59.6659 96.928 59.5005 96.3307 59.3512 95.776C59.2019 95.2213 59.0739 94.7413 58.9672 94.336C58.8605 93.9307 58.7859 93.6427 58.7432 93.472L58.6792 93.488C58.7112 93.68 58.7379 93.936 58.7592 94.256C58.7805 94.5653 58.7965 94.896 58.8072 95.248C58.8179 95.5893 58.8232 95.904 58.8232 96.192V101.856H56.3752V91.728H60.6632C60.8125 92.2933 60.9672 92.8907 61.1272 93.52C61.2979 94.1387 61.4632 94.7573 61.6232 95.376C61.7939 95.984 61.9432 96.5653 62.0712 97.12C62.1992 97.664 62.2899 98.1387 62.3432 98.544H62.3752C62.4285 98.1387 62.5139 97.664 62.6312 97.12C62.7592 96.576 62.9032 95.9947 63.0632 95.376C63.2232 94.7573 63.3885 94.1387 63.5592 93.52C63.7299 92.8907 63.8845 92.2933 64.0232 91.728H68.2472V101.856H65.8312V96.192C65.8312 95.904 65.8365 95.5893 65.8472 95.248C65.8579 94.896 65.8739 94.5653 65.8952 94.256C65.9272 93.936 65.9539 93.68 65.9752 93.488L65.9112 93.472C65.8685 93.6427 65.7939 93.9307 65.6872 94.336C65.5805 94.7413 65.4472 95.2267 65.2872 95.792C65.1379 96.3467 64.9725 96.944 64.7912 97.584C64.6099 98.224 64.4232 98.8693 64.2312 99.52C64.0499 100.16 63.8739 100.768 63.7032 101.344H60.9512ZM79.4978 101.808V101.856H76.7778C76.7031 101.6 76.6125 101.307 76.5058 100.976C76.4098 100.645 76.3031 100.293 76.1858 99.92H72.7298C72.5165 100.667 72.3191 101.312 72.1378 101.856H69.4178V101.824L72.6978 91.728H76.2178L79.4978 101.808ZM74.4258 93.552C74.3191 94.096 74.1645 94.7573 73.9618 95.536C73.7591 96.3147 73.5458 97.1093 73.3218 97.92H75.6098C75.3751 97.1093 75.1565 96.3147 74.9538 95.536C74.7511 94.7573 74.5965 94.096 74.4898 93.552H74.4258ZM87.9841 99.68V101.856H80.6241V91.728H83.1841V99.68H87.9841ZM91.6684 101.856H89.1084V91.728H91.6684V101.856ZM48.709 123.344C48.5277 122.768 48.341 122.155 48.149 121.504C47.9677 120.853 47.7863 120.208 47.605 119.568C47.4237 118.928 47.2583 118.331 47.109 117.776C46.9597 117.221 46.8317 116.741 46.725 116.336C46.6183 115.931 46.5437 115.643 46.501 115.472L46.437 115.488C46.469 115.68 46.4957 115.936 46.517 116.256C46.5383 116.565 46.5543 116.896 46.565 117.248C46.5757 117.589 46.581 117.904 46.581 118.192V123.856H44.133V113.728H48.421C48.5703 114.293 48.725 114.891 48.885 115.52C49.0557 116.139 49.221 116.757 49.381 117.376C49.5517 117.984 49.701 118.565 49.829 119.12C49.957 119.664 50.0477 120.139 50.101 120.544H50.133C50.1863 120.139 50.2717 119.664 50.389 119.12C50.517 118.576 50.661 117.995 50.821 117.376C50.981 116.757 51.1463 116.139 51.317 115.52C51.4877 114.891 51.6423 114.293 51.781 113.728H56.005V123.856H53.589V118.192C53.589 117.904 53.5943 117.589 53.605 117.248C53.6157 116.896 53.6317 116.565 53.653 116.256C53.685 115.936 53.7117 115.68 53.733 115.488L53.669 115.472C53.6263 115.643 53.5517 115.931 53.445 116.336C53.3383 116.741 53.205 117.227 53.045 117.792C52.8957 118.347 52.7303 118.944 52.549 119.584C52.3677 120.224 52.181 120.869 51.989 121.52C51.8077 122.16 51.6317 122.768 51.461 123.344H48.709ZM67.2556 123.808V123.856H64.5356C64.461 123.6 64.3703 123.307 64.2636 122.976C64.1676 122.645 64.061 122.293 63.9436 121.92H60.4876C60.2743 122.667 60.077 123.312 59.8956 123.856H57.1756V123.824L60.4556 113.728H63.9756L67.2556 123.808ZM62.1836 115.552C62.077 116.096 61.9223 116.757 61.7196 117.536C61.517 118.315 61.3036 119.109 61.0796 119.92H63.3676C63.133 119.109 62.9143 118.315 62.7116 117.536C62.509 116.757 62.3543 116.096 62.2476 115.552H62.1836ZM70.9419 123.856H68.3819V113.728H73.2139C74.4832 113.728 75.4059 114.016 75.9819 114.592C76.5685 115.157 76.8619 115.995 76.8619 117.104C76.8619 117.936 76.6539 118.651 76.2379 119.248C75.8219 119.835 75.2725 120.203 74.5899 120.352L74.5739 120.4C74.8405 120.571 75.1339 120.853 75.4539 121.248C75.7739 121.643 76.0885 122.075 76.3979 122.544C76.7179 123.003 77.0005 123.435 77.2459 123.84V123.856H74.2699L72.5419 121.296C72.3925 121.072 72.2699 120.912 72.1739 120.816C72.0885 120.72 71.9819 120.661 71.8539 120.64C71.7365 120.619 71.5445 120.608 71.2779 120.608H70.9419V123.856ZM72.7979 115.808H70.9419V118.528H72.7979C73.3312 118.528 73.6992 118.421 73.9019 118.208C74.1152 117.995 74.2219 117.648 74.2219 117.168C74.2219 116.688 74.1152 116.341 73.9019 116.128C73.6992 115.915 73.3312 115.808 72.7979 115.808ZM81.2544 123.856H78.6944V113.728H81.2544V117.968C81.2757 117.968 81.2917 117.968 81.3024 117.968C81.409 117.968 81.5317 117.883 81.6704 117.712C81.8197 117.541 81.953 117.371 82.0704 117.2L84.2144 113.728H86.9984V113.776L85.1744 116.72C85.0144 116.987 84.833 117.275 84.6304 117.584C84.4277 117.883 84.225 118.149 84.0224 118.384C83.8304 118.608 83.6597 118.747 83.5104 118.8V118.848C83.6597 118.912 83.8304 119.051 84.0224 119.264C84.225 119.467 84.4277 119.707 84.6304 119.984C84.8437 120.251 85.0464 120.517 85.2384 120.784L87.3664 123.808V123.856H84.4224L82.4224 120.784V120.8C82.3584 120.693 82.257 120.555 82.1184 120.384C81.9904 120.203 81.8517 120.037 81.7024 119.888C81.5637 119.739 81.441 119.664 81.3344 119.664C81.313 119.664 81.297 119.664 81.2864 119.664C81.2757 119.664 81.265 119.664 81.2544 119.664V123.856ZM88.3975 123.856V113.728H95.9175V115.808H90.9575V117.728H95.2615V119.808H90.9575V121.776H95.9175V123.856H88.3975ZM99.2744 123.856V115.888H96.3944V113.728H104.714V115.888H101.834V123.856H99.2744Z" fill="#010D1E"/>
<path d="M60.9512 101.344C60.7699 100.768 60.5832 100.155 60.3912 99.504C60.2099 98.8533 60.0285 98.208 59.8472 97.568C59.6659 96.928 59.5005 96.3307 59.3512 95.776C59.2019 95.2213 59.0739 94.7413 58.9672 94.336C58.8605 93.9307 58.7859 93.6427 58.7432 93.472L58.6792 93.488C58.7112 93.68 58.7379 93.936 58.7592 94.256C58.7805 94.5653 58.7965 94.896 58.8072 95.248C58.8179 95.5893 58.8232 95.904 58.8232 96.192V101.856H56.3752V91.728H60.6632C60.8125 92.2933 60.9672 92.8907 61.1272 93.52C61.2979 94.1387 61.4632 94.7573 61.6232 95.376C61.7939 95.984 61.9432 96.5653 62.0712 97.12C62.1992 97.664 62.2899 98.1387 62.3432 98.544H62.3752C62.4285 98.1387 62.5139 97.664 62.6312 97.12C62.7592 96.576 62.9032 95.9947 63.0632 95.376C63.2232 94.7573 63.3885 94.1387 63.5592 93.52C63.7299 92.8907 63.8845 92.2933 64.0232 91.728H68.2472V101.856H65.8312V96.192C65.8312 95.904 65.8365 95.5893 65.8472 95.248C65.8579 94.896 65.8739 94.5653 65.8952 94.256C65.9272 93.936 65.9539 93.68 65.9752 93.488L65.9112 93.472C65.8685 93.6427 65.7939 93.9307 65.6872 94.336C65.5805 94.7413 65.4472 95.2267 65.2872 95.792C65.1379 96.3467 64.9725 96.944 64.7912 97.584C64.6099 98.224 64.4232 98.8693 64.2312 99.52C64.0499 100.16 63.8739 100.768 63.7032 101.344H60.9512ZM79.4978 101.808V101.856H76.7778C76.7031 101.6 76.6125 101.307 76.5058 100.976C76.4098 100.645 76.3031 100.293 76.1858 99.92H72.7298C72.5165 100.667 72.3191 101.312 72.1378 101.856H69.4178V101.824L72.6978 91.728H76.2178L79.4978 101.808ZM74.4258 93.552C74.3191 94.096 74.1645 94.7573 73.9618 95.536C73.7591 96.3147 73.5458 97.1093 73.3218 97.92H75.6098C75.3751 97.1093 75.1565 96.3147 74.9538 95.536C74.7511 94.7573 74.5965 94.096 74.4898 93.552H74.4258ZM87.9841 99.68V101.856H80.6241V91.728H83.1841V99.68H87.9841ZM91.6684 101.856H89.1084V91.728H91.6684V101.856ZM48.709 123.344C48.5277 122.768 48.341 122.155 48.149 121.504C47.9677 120.853 47.7863 120.208 47.605 119.568C47.4237 118.928 47.2583 118.331 47.109 117.776C46.9597 117.221 46.8317 116.741 46.725 116.336C46.6183 115.931 46.5437 115.643 46.501 115.472L46.437 115.488C46.469 115.68 46.4957 115.936 46.517 116.256C46.5383 116.565 46.5543 116.896 46.565 117.248C46.5757 117.589 46.581 117.904 46.581 118.192V123.856H44.133V113.728H48.421C48.5703 114.293 48.725 114.891 48.885 115.52C49.0557 116.139 49.221 116.757 49.381 117.376C49.5517 117.984 49.701 118.565 49.829 119.12C49.957 119.664 50.0477 120.139 50.101 120.544H50.133C50.1863 120.139 50.2717 119.664 50.389 119.12C50.517 118.576 50.661 117.995 50.821 117.376C50.981 116.757 51.1463 116.139 51.317 115.52C51.4877 114.891 51.6423 114.293 51.781 113.728H56.005V123.856H53.589V118.192C53.589 117.904 53.5943 117.589 53.605 117.248C53.6157 116.896 53.6317 116.565 53.653 116.256C53.685 115.936 53.7117 115.68 53.733 115.488L53.669 115.472C53.6263 115.643 53.5517 115.931 53.445 116.336C53.3383 116.741 53.205 117.227 53.045 117.792C52.8957 118.347 52.7303 118.944 52.549 119.584C52.3677 120.224 52.181 120.869 51.989 121.52C51.8077 122.16 51.6317 122.768 51.461 123.344H48.709ZM67.2556 123.808V123.856H64.5356C64.461 123.6 64.3703 123.307 64.2636 122.976C64.1676 122.645 64.061 122.293 63.9436 121.92H60.4876C60.2743 122.667 60.077 123.312 59.8956 123.856H57.1756V123.824L60.4556 113.728H63.9756L67.2556 123.808ZM62.1836 115.552C62.077 116.096 61.9223 116.757 61.7196 117.536C61.517 118.315 61.3036 119.109 61.0796 119.92H63.3676C63.133 119.109 62.9143 118.315 62.7116 117.536C62.509 116.757 62.3543 116.096 62.2476 115.552H62.1836ZM70.9419 123.856H68.3819V113.728H73.2139C74.4832 113.728 75.4059 114.016 75.9819 114.592C76.5685 115.157 76.8619 115.995 76.8619 117.104C76.8619 117.936 76.6539 118.651 76.2379 119.248C75.8219 119.835 75.2725 120.203 74.5899 120.352L74.5739 120.4C74.8405 120.571 75.1339 120.853 75.4539 121.248C75.7739 121.643 76.0885 122.075 76.3979 122.544C76.7179 123.003 77.0005 123.435 77.2459 123.84V123.856H74.2699L72.5419 121.296C72.3925 121.072 72.2699 120.912 72.1739 120.816C72.0885 120.72 71.9819 120.661 71.8539 120.64C71.7365 120.619 71.5445 120.608 71.2779 120.608H70.9419V123.856ZM72.7979 115.808H70.9419V118.528H72.7979C73.3312 118.528 73.6992 118.421 73.9019 118.208C74.1152 117.995 74.2219 117.648 74.2219 117.168C74.2219 116.688 74.1152 116.341 73.9019 116.128C73.6992 115.915 73.3312 115.808 72.7979 115.808ZM81.2544 123.856H78.6944V113.728H81.2544V117.968C81.2757 117.968 81.2917 117.968 81.3024 117.968C81.409 117.968 81.5317 117.883 81.6704 117.712C81.8197 117.541 81.953 117.371 82.0704 117.2L84.2144 113.728H86.9984V113.776L85.1744 116.72C85.0144 116.987 84.833 117.275 84.6304 117.584C84.4277 117.883 84.225 118.149 84.0224 118.384C83.8304 118.608 83.6597 118.747 83.5104 118.8V118.848C83.6597 118.912 83.8304 119.051 84.0224 119.264C84.225 119.467 84.4277 119.707 84.6304 119.984C84.8437 120.251 85.0464 120.517 85.2384 120.784L87.3664 123.808V123.856H84.4224L82.4224 120.784V120.8C82.3584 120.693 82.257 120.555 82.1184 120.384C81.9904 120.203 81.8517 120.037 81.7024 119.888C81.5637 119.739 81.441 119.664 81.3344 119.664C81.313 119.664 81.297 119.664 81.2864 119.664C81.2757 119.664 81.265 119.664 81.2544 119.664V123.856ZM88.3975 123.856V113.728H95.9175V115.808H90.9575V117.728H95.2615V119.808H90.9575V121.776H95.9175V123.856H88.3975ZM99.2744 123.856V115.888H96.3944V113.728H104.714V115.888H101.834V123.856H99.2744Z" fill="#010D1E"/>
<path d="M60.9512 101.344C60.7699 100.768 60.5832 100.155 60.3912 99.504C60.2099 98.8533 60.0285 98.208 59.8472 97.568C59.6659 96.928 59.5005 96.3307 59.3512 95.776C59.2019 95.2213 59.0739 94.7413 58.9672 94.336C58.8605 93.9307 58.7859 93.6427 58.7432 93.472L58.6792 93.488C58.7112 93.68 58.7379 93.936 58.7592 94.256C58.7805 94.5653 58.7965 94.896 58.8072 95.248C58.8179 95.5893 58.8232 95.904 58.8232 96.192V101.856H56.3752V91.728H60.6632C60.8125 92.2933 60.9672 92.8907 61.1272 93.52C61.2979 94.1387 61.4632 94.7573 61.6232 95.376C61.7939 95.984 61.9432 96.5653 62.0712 97.12C62.1992 97.664 62.2899 98.1387 62.3432 98.544H62.3752C62.4285 98.1387 62.5139 97.664 62.6312 97.12C62.7592 96.576 62.9032 95.9947 63.0632 95.376C63.2232 94.7573 63.3885 94.1387 63.5592 93.52C63.7299 92.8907 63.8845 92.2933 64.0232 91.728H68.2472V101.856H65.8312V96.192C65.8312 95.904 65.8365 95.5893 65.8472 95.248C65.8579 94.896 65.8739 94.5653 65.8952 94.256C65.9272 93.936 65.9539 93.68 65.9752 93.488L65.9112 93.472C65.8685 93.6427 65.7939 93.9307 65.6872 94.336C65.5805 94.7413 65.4472 95.2267 65.2872 95.792C65.1379 96.3467 64.9725 96.944 64.7912 97.584C64.6099 98.224 64.4232 98.8693 64.2312 99.52C64.0499 100.16 63.8739 100.768 63.7032 101.344H60.9512ZM79.4978 101.808V101.856H76.7778C76.7031 101.6 76.6125 101.307 76.5058 100.976C76.4098 100.645 76.3031 100.293 76.1858 99.92H72.7298C72.5165 100.667 72.3191 101.312 72.1378 101.856H69.4178V101.824L72.6978 91.728H76.2178L79.4978 101.808ZM74.4258 93.552C74.3191 94.096 74.1645 94.7573 73.9618 95.536C73.7591 96.3147 73.5458 97.1093 73.3218 97.92H75.6098C75.3751 97.1093 75.1565 96.3147 74.9538 95.536C74.7511 94.7573 74.5965 94.096 74.4898 93.552H74.4258ZM87.9841 99.68V101.856H80.6241V91.728H83.1841V99.68H87.9841ZM91.6684 101.856H89.1084V91.728H91.6684V101.856ZM48.709 123.344C48.5277 122.768 48.341 122.155 48.149 121.504C47.9677 120.853 47.7863 120.208 47.605 119.568C47.4237 118.928 47.2583 118.331 47.109 117.776C46.9597 117.221 46.8317 116.741 46.725 116.336C46.6183 115.931 46.5437 115.643 46.501 115.472L46.437 115.488C46.469 115.68 46.4957 115.936 46.517 116.256C46.5383 116.565 46.5543 116.896 46.565 117.248C46.5757 117.589 46.581 117.904 46.581 118.192V123.856H44.133V113.728H48.421C48.5703 114.293 48.725 114.891 48.885 115.52C49.0557 116.139 49.221 116.757 49.381 117.376C49.5517 117.984 49.701 118.565 49.829 119.12C49.957 119.664 50.0477 120.139 50.101 120.544H50.133C50.1863 120.139 50.2717 119.664 50.389 119.12C50.517 118.576 50.661 117.995 50.821 117.376C50.981 116.757 51.1463 116.139 51.317 115.52C51.4877 114.891 51.6423 114.293 51.781 113.728H56.005V123.856H53.589V118.192C53.589 117.904 53.5943 117.589 53.605 117.248C53.6157 116.896 53.6317 116.565 53.653 116.256C53.685 115.936 53.7117 115.68 53.733 115.488L53.669 115.472C53.6263 115.643 53.5517 115.931 53.445 116.336C53.3383 116.741 53.205 117.227 53.045 117.792C52.8957 118.347 52.7303 118.944 52.549 119.584C52.3677 120.224 52.181 120.869 51.989 121.52C51.8077 122.16 51.6317 122.768 51.461 123.344H48.709ZM67.2556 123.808V123.856H64.5356C64.461 123.6 64.3703 123.307 64.2636 122.976C64.1676 122.645 64.061 122.293 63.9436 121.92H60.4876C60.2743 122.667 60.077 123.312 59.8956 123.856H57.1756V123.824L60.4556 113.728H63.9756L67.2556 123.808ZM62.1836 115.552C62.077 116.096 61.9223 116.757 61.7196 117.536C61.517 118.315 61.3036 119.109 61.0796 119.92H63.3676C63.133 119.109 62.9143 118.315 62.7116 117.536C62.509 116.757 62.3543 116.096 62.2476 115.552H62.1836ZM70.9419 123.856H68.3819V113.728H73.2139C74.4832 113.728 75.4059 114.016 75.9819 114.592C76.5685 115.157 76.8619 115.995 76.8619 117.104C76.8619 117.936 76.6539 118.651 76.2379 119.248C75.8219 119.835 75.2725 120.203 74.5899 120.352L74.5739 120.4C74.8405 120.571 75.1339 120.853 75.4539 121.248C75.7739 121.643 76.0885 122.075 76.3979 122.544C76.7179 123.003 77.0005 123.435 77.2459 123.84V123.856H74.2699L72.5419 121.296C72.3925 121.072 72.2699 120.912 72.1739 120.816C72.0885 120.72 71.9819 120.661 71.8539 120.64C71.7365 120.619 71.5445 120.608 71.2779 120.608H70.9419V123.856ZM72.7979 115.808H70.9419V118.528H72.7979C73.3312 118.528 73.6992 118.421 73.9019 118.208C74.1152 117.995 74.2219 117.648 74.2219 117.168C74.2219 116.688 74.1152 116.341 73.9019 116.128C73.6992 115.915 73.3312 115.808 72.7979 115.808ZM81.2544 123.856H78.6944V113.728H81.2544V117.968C81.2757 117.968 81.2917 117.968 81.3024 117.968C81.409 117.968 81.5317 117.883 81.6704 117.712C81.8197 117.541 81.953 117.371 82.0704 117.2L84.2144 113.728H86.9984V113.776L85.1744 116.72C85.0144 116.987 84.833 117.275 84.6304 117.584C84.4277 117.883 84.225 118.149 84.0224 118.384C83.8304 118.608 83.6597 118.747 83.5104 118.8V118.848C83.6597 118.912 83.8304 119.051 84.0224 119.264C84.225 119.467 84.4277 119.707 84.6304 119.984C84.8437 120.251 85.0464 120.517 85.2384 120.784L87.3664 123.808V123.856H84.4224L82.4224 120.784V120.8C82.3584 120.693 82.257 120.555 82.1184 120.384C81.9904 120.203 81.8517 120.037 81.7024 119.888C81.5637 119.739 81.441 119.664 81.3344 119.664C81.313 119.664 81.297 119.664 81.2864 119.664C81.2757 119.664 81.265 119.664 81.2544 119.664V123.856ZM88.3975 123.856V113.728H95.9175V115.808H90.9575V117.728H95.2615V119.808H90.9575V121.776H95.9175V123.856H88.3975ZM99.2744 123.856V115.888H96.3944V113.728H104.714V115.888H101.834V123.856H99.2744Z" fill="#010D1E"/>
<path d="M60.9512 101.344C60.7699 100.768 60.5832 100.155 60.3912 99.504C60.2099 98.8533 60.0285 98.208 59.8472 97.568C59.6659 96.928 59.5005 96.3307 59.3512 95.776C59.2019 95.2213 59.0739 94.7413 58.9672 94.336C58.8605 93.9307 58.7859 93.6427 58.7432 93.472L58.6792 93.488C58.7112 93.68 58.7379 93.936 58.7592 94.256C58.7805 94.5653 58.7965 94.896 58.8072 95.248C58.8179 95.5893 58.8232 95.904 58.8232 96.192V101.856H56.3752V91.728H60.6632C60.8125 92.2933 60.9672 92.8907 61.1272 93.52C61.2979 94.1387 61.4632 94.7573 61.6232 95.376C61.7939 95.984 61.9432 96.5653 62.0712 97.12C62.1992 97.664 62.2899 98.1387 62.3432 98.544H62.3752C62.4285 98.1387 62.5139 97.664 62.6312 97.12C62.7592 96.576 62.9032 95.9947 63.0632 95.376C63.2232 94.7573 63.3885 94.1387 63.5592 93.52C63.7299 92.8907 63.8845 92.2933 64.0232 91.728H68.2472V101.856H65.8312V96.192C65.8312 95.904 65.8365 95.5893 65.8472 95.248C65.8579 94.896 65.8739 94.5653 65.8952 94.256C65.9272 93.936 65.9539 93.68 65.9752 93.488L65.9112 93.472C65.8685 93.6427 65.7939 93.9307 65.6872 94.336C65.5805 94.7413 65.4472 95.2267 65.2872 95.792C65.1379 96.3467 64.9725 96.944 64.7912 97.584C64.6099 98.224 64.4232 98.8693 64.2312 99.52C64.0499 100.16 63.8739 100.768 63.7032 101.344H60.9512ZM79.4978 101.808V101.856H76.7778C76.7031 101.6 76.6125 101.307 76.5058 100.976C76.4098 100.645 76.3031 100.293 76.1858 99.92H72.7298C72.5165 100.667 72.3191 101.312 72.1378 101.856H69.4178V101.824L72.6978 91.728H76.2178L79.4978 101.808ZM74.4258 93.552C74.3191 94.096 74.1645 94.7573 73.9618 95.536C73.7591 96.3147 73.5458 97.1093 73.3218 97.92H75.6098C75.3751 97.1093 75.1565 96.3147 74.9538 95.536C74.7511 94.7573 74.5965 94.096 74.4898 93.552H74.4258ZM87.9841 99.68V101.856H80.6241V91.728H83.1841V99.68H87.9841ZM91.6684 101.856H89.1084V91.728H91.6684V101.856ZM48.709 123.344C48.5277 122.768 48.341 122.155 48.149 121.504C47.9677 120.853 47.7863 120.208 47.605 119.568C47.4237 118.928 47.2583 118.331 47.109 117.776C46.9597 117.221 46.8317 116.741 46.725 116.336C46.6183 115.931 46.5437 115.643 46.501 115.472L46.437 115.488C46.469 115.68 46.4957 115.936 46.517 116.256C46.5383 116.565 46.5543 116.896 46.565 117.248C46.5757 117.589 46.581 117.904 46.581 118.192V123.856H44.133V113.728H48.421C48.5703 114.293 48.725 114.891 48.885 115.52C49.0557 116.139 49.221 116.757 49.381 117.376C49.5517 117.984 49.701 118.565 49.829 119.12C49.957 119.664 50.0477 120.139 50.101 120.544H50.133C50.1863 120.139 50.2717 119.664 50.389 119.12C50.517 118.576 50.661 117.995 50.821 117.376C50.981 116.757 51.1463 116.139 51.317 115.52C51.4877 114.891 51.6423 114.293 51.781 113.728H56.005V123.856H53.589V118.192C53.589 117.904 53.5943 117.589 53.605 117.248C53.6157 116.896 53.6317 116.565 53.653 116.256C53.685 115.936 53.7117 115.68 53.733 115.488L53.669 115.472C53.6263 115.643 53.5517 115.931 53.445 116.336C53.3383 116.741 53.205 117.227 53.045 117.792C52.8957 118.347 52.7303 118.944 52.549 119.584C52.3677 120.224 52.181 120.869 51.989 121.52C51.8077 122.16 51.6317 122.768 51.461 123.344H48.709ZM67.2556 123.808V123.856H64.5356C64.461 123.6 64.3703 123.307 64.2636 122.976C64.1676 122.645 64.061 122.293 63.9436 121.92H60.4876C60.2743 122.667 60.077 123.312 59.8956 123.856H57.1756V123.824L60.4556 113.728H63.9756L67.2556 123.808ZM62.1836 115.552C62.077 116.096 61.9223 116.757 61.7196 117.536C61.517 118.315 61.3036 119.109 61.0796 119.92H63.3676C63.133 119.109 62.9143 118.315 62.7116 117.536C62.509 116.757 62.3543 116.096 62.2476 115.552H62.1836ZM70.9419 123.856H68.3819V113.728H73.2139C74.4832 113.728 75.4059 114.016 75.9819 114.592C76.5685 115.157 76.8619 115.995 76.8619 117.104C76.8619 117.936 76.6539 118.651 76.2379 119.248C75.8219 119.835 75.2725 120.203 74.5899 120.352L74.5739 120.4C74.8405 120.571 75.1339 120.853 75.4539 121.248C75.7739 121.643 76.0885 122.075 76.3979 122.544C76.7179 123.003 77.0005 123.435 77.2459 123.84V123.856H74.2699L72.5419 121.296C72.3925 121.072 72.2699 120.912 72.1739 120.816C72.0885 120.72 71.9819 120.661 71.8539 120.64C71.7365 120.619 71.5445 120.608 71.2779 120.608H70.9419V123.856ZM72.7979 115.808H70.9419V118.528H72.7979C73.3312 118.528 73.6992 118.421 73.9019 118.208C74.1152 117.995 74.2219 117.648 74.2219 117.168C74.2219 116.688 74.1152 116.341 73.9019 116.128C73.6992 115.915 73.3312 115.808 72.7979 115.808ZM81.2544 123.856H78.6944V113.728H81.2544V117.968C81.2757 117.968 81.2917 117.968 81.3024 117.968C81.409 117.968 81.5317 117.883 81.6704 117.712C81.8197 117.541 81.953 117.371 82.0704 117.2L84.2144 113.728H86.9984V113.776L85.1744 116.72C85.0144 116.987 84.833 117.275 84.6304 117.584C84.4277 117.883 84.225 118.149 84.0224 118.384C83.8304 118.608 83.6597 118.747 83.5104 118.8V118.848C83.6597 118.912 83.8304 119.051 84.0224 119.264C84.225 119.467 84.4277 119.707 84.6304 119.984C84.8437 120.251 85.0464 120.517 85.2384 120.784L87.3664 123.808V123.856H84.4224L82.4224 120.784V120.8C82.3584 120.693 82.257 120.555 82.1184 120.384C81.9904 120.203 81.8517 120.037 81.7024 119.888C81.5637 119.739 81.441 119.664 81.3344 119.664C81.313 119.664 81.297 119.664 81.2864 119.664C81.2757 119.664 81.265 119.664 81.2544 119.664V123.856ZM88.3975 123.856V113.728H95.9175V115.808H90.9575V117.728H95.2615V119.808H90.9575V121.776H95.9175V123.856H88.3975ZM99.2744 123.856V115.888H96.3944V113.728H104.714V115.888H101.834V123.856H99.2744Z" fill="#010D1E"/>
<path d="M60.9512 101.344C60.7699 100.768 60.5832 100.155 60.3912 99.504C60.2099 98.8533 60.0285 98.208 59.8472 97.568C59.6659 96.928 59.5005 96.3307 59.3512 95.776C59.2019 95.2213 59.0739 94.7413 58.9672 94.336C58.8605 93.9307 58.7859 93.6427 58.7432 93.472L58.6792 93.488C58.7112 93.68 58.7379 93.936 58.7592 94.256C58.7805 94.5653 58.7965 94.896 58.8072 95.248C58.8179 95.5893 58.8232 95.904 58.8232 96.192V101.856H56.3752V91.728H60.6632C60.8125 92.2933 60.9672 92.8907 61.1272 93.52C61.2979 94.1387 61.4632 94.7573 61.6232 95.376C61.7939 95.984 61.9432 96.5653 62.0712 97.12C62.1992 97.664 62.2899 98.1387 62.3432 98.544H62.3752C62.4285 98.1387 62.5139 97.664 62.6312 97.12C62.7592 96.576 62.9032 95.9947 63.0632 95.376C63.2232 94.7573 63.3885 94.1387 63.5592 93.52C63.7299 92.8907 63.8845 92.2933 64.0232 91.728H68.2472V101.856H65.8312V96.192C65.8312 95.904 65.8365 95.5893 65.8472 95.248C65.8579 94.896 65.8739 94.5653 65.8952 94.256C65.9272 93.936 65.9539 93.68 65.9752 93.488L65.9112 93.472C65.8685 93.6427 65.7939 93.9307 65.6872 94.336C65.5805 94.7413 65.4472 95.2267 65.2872 95.792C65.1379 96.3467 64.9725 96.944 64.7912 97.584C64.6099 98.224 64.4232 98.8693 64.2312 99.52C64.0499 100.16 63.8739 100.768 63.7032 101.344H60.9512ZM79.4978 101.808V101.856H76.7778C76.7031 101.6 76.6125 101.307 76.5058 100.976C76.4098 100.645 76.3031 100.293 76.1858 99.92H72.7298C72.5165 100.667 72.3191 101.312 72.1378 101.856H69.4178V101.824L72.6978 91.728H76.2178L79.4978 101.808ZM74.4258 93.552C74.3191 94.096 74.1645 94.7573 73.9618 95.536C73.7591 96.3147 73.5458 97.1093 73.3218 97.92H75.6098C75.3751 97.1093 75.1565 96.3147 74.9538 95.536C74.7511 94.7573 74.5965 94.096 74.4898 93.552H74.4258ZM87.9841 99.68V101.856H80.6241V91.728H83.1841V99.68H87.9841ZM91.6684 101.856H89.1084V91.728H91.6684V101.856ZM48.709 123.344C48.5277 122.768 48.341 122.155 48.149 121.504C47.9677 120.853 47.7863 120.208 47.605 119.568C47.4237 118.928 47.2583 118.331 47.109 117.776C46.9597 117.221 46.8317 116.741 46.725 116.336C46.6183 115.931 46.5437 115.643 46.501 115.472L46.437 115.488C46.469 115.68 46.4957 115.936 46.517 116.256C46.5383 116.565 46.5543 116.896 46.565 117.248C46.5757 117.589 46.581 117.904 46.581 118.192V123.856H44.133V113.728H48.421C48.5703 114.293 48.725 114.891 48.885 115.52C49.0557 116.139 49.221 116.757 49.381 117.376C49.5517 117.984 49.701 118.565 49.829 119.12C49.957 119.664 50.0477 120.139 50.101 120.544H50.133C50.1863 120.139 50.2717 119.664 50.389 119.12C50.517 118.576 50.661 117.995 50.821 117.376C50.981 116.757 51.1463 116.139 51.317 115.52C51.4877 114.891 51.6423 114.293 51.781 113.728H56.005V123.856H53.589V118.192C53.589 117.904 53.5943 117.589 53.605 117.248C53.6157 116.896 53.6317 116.565 53.653 116.256C53.685 115.936 53.7117 115.68 53.733 115.488L53.669 115.472C53.6263 115.643 53.5517 115.931 53.445 116.336C53.3383 116.741 53.205 117.227 53.045 117.792C52.8957 118.347 52.7303 118.944 52.549 119.584C52.3677 120.224 52.181 120.869 51.989 121.52C51.8077 122.16 51.6317 122.768 51.461 123.344H48.709ZM67.2556 123.808V123.856H64.5356C64.461 123.6 64.3703 123.307 64.2636 122.976C64.1676 122.645 64.061 122.293 63.9436 121.92H60.4876C60.2743 122.667 60.077 123.312 59.8956 123.856H57.1756V123.824L60.4556 113.728H63.9756L67.2556 123.808ZM62.1836 115.552C62.077 116.096 61.9223 116.757 61.7196 117.536C61.517 118.315 61.3036 119.109 61.0796 119.92H63.3676C63.133 119.109 62.9143 118.315 62.7116 117.536C62.509 116.757 62.3543 116.096 62.2476 115.552H62.1836ZM70.9419 123.856H68.3819V113.728H73.2139C74.4832 113.728 75.4059 114.016 75.9819 114.592C76.5685 115.157 76.8619 115.995 76.8619 117.104C76.8619 117.936 76.6539 118.651 76.2379 119.248C75.8219 119.835 75.2725 120.203 74.5899 120.352L74.5739 120.4C74.8405 120.571 75.1339 120.853 75.4539 121.248C75.7739 121.643 76.0885 122.075 76.3979 122.544C76.7179 123.003 77.0005 123.435 77.2459 123.84V123.856H74.2699L72.5419 121.296C72.3925 121.072 72.2699 120.912 72.1739 120.816C72.0885 120.72 71.9819 120.661 71.8539 120.64C71.7365 120.619 71.5445 120.608 71.2779 120.608H70.9419V123.856ZM72.7979 115.808H70.9419V118.528H72.7979C73.3312 118.528 73.6992 118.421 73.9019 118.208C74.1152 117.995 74.2219 117.648 74.2219 117.168C74.2219 116.688 74.1152 116.341 73.9019 116.128C73.6992 115.915 73.3312 115.808 72.7979 115.808ZM81.2544 123.856H78.6944V113.728H81.2544V117.968C81.2757 117.968 81.2917 117.968 81.3024 117.968C81.409 117.968 81.5317 117.883 81.6704 117.712C81.8197 117.541 81.953 117.371 82.0704 117.2L84.2144 113.728H86.9984V113.776L85.1744 116.72C85.0144 116.987 84.833 117.275 84.6304 117.584C84.4277 117.883 84.225 118.149 84.0224 118.384C83.8304 118.608 83.6597 118.747 83.5104 118.8V118.848C83.6597 118.912 83.8304 119.051 84.0224 119.264C84.225 119.467 84.4277 119.707 84.6304 119.984C84.8437 120.251 85.0464 120.517 85.2384 120.784L87.3664 123.808V123.856H84.4224L82.4224 120.784V120.8C82.3584 120.693 82.257 120.555 82.1184 120.384C81.9904 120.203 81.8517 120.037 81.7024 119.888C81.5637 119.739 81.441 119.664 81.3344 119.664C81.313 119.664 81.297 119.664 81.2864 119.664C81.2757 119.664 81.265 119.664 81.2544 119.664V123.856ZM88.3975 123.856V113.728H95.9175V115.808H90.9575V117.728H95.2615V119.808H90.9575V121.776H95.9175V123.856H88.3975ZM99.2744 123.856V115.888H96.3944V113.728H104.714V115.888H101.834V123.856H99.2744Z" fill="#010D1E"/>
<path d="M60.9512 101.344C60.7699 100.768 60.5832 100.155 60.3912 99.504C60.2099 98.8533 60.0285 98.208 59.8472 97.568C59.6659 96.928 59.5005 96.3307 59.3512 95.776C59.2019 95.2213 59.0739 94.7413 58.9672 94.336C58.8605 93.9307 58.7859 93.6427 58.7432 93.472L58.6792 93.488C58.7112 93.68 58.7379 93.936 58.7592 94.256C58.7805 94.5653 58.7965 94.896 58.8072 95.248C58.8179 95.5893 58.8232 95.904 58.8232 96.192V101.856H56.3752V91.728H60.6632C60.8125 92.2933 60.9672 92.8907 61.1272 93.52C61.2979 94.1387 61.4632 94.7573 61.6232 95.376C61.7939 95.984 61.9432 96.5653 62.0712 97.12C62.1992 97.664 62.2899 98.1387 62.3432 98.544H62.3752C62.4285 98.1387 62.5139 97.664 62.6312 97.12C62.7592 96.576 62.9032 95.9947 63.0632 95.376C63.2232 94.7573 63.3885 94.1387 63.5592 93.52C63.7299 92.8907 63.8845 92.2933 64.0232 91.728H68.2472V101.856H65.8312V96.192C65.8312 95.904 65.8365 95.5893 65.8472 95.248C65.8579 94.896 65.8739 94.5653 65.8952 94.256C65.9272 93.936 65.9539 93.68 65.9752 93.488L65.9112 93.472C65.8685 93.6427 65.7939 93.9307 65.6872 94.336C65.5805 94.7413 65.4472 95.2267 65.2872 95.792C65.1379 96.3467 64.9725 96.944 64.7912 97.584C64.6099 98.224 64.4232 98.8693 64.2312 99.52C64.0499 100.16 63.8739 100.768 63.7032 101.344H60.9512ZM79.4978 101.808V101.856H76.7778C76.7031 101.6 76.6125 101.307 76.5058 100.976C76.4098 100.645 76.3031 100.293 76.1858 99.92H72.7298C72.5165 100.667 72.3191 101.312 72.1378 101.856H69.4178V101.824L72.6978 91.728H76.2178L79.4978 101.808ZM74.4258 93.552C74.3191 94.096 74.1645 94.7573 73.9618 95.536C73.7591 96.3147 73.5458 97.1093 73.3218 97.92H75.6098C75.3751 97.1093 75.1565 96.3147 74.9538 95.536C74.7511 94.7573 74.5965 94.096 74.4898 93.552H74.4258ZM87.9841 99.68V101.856H80.6241V91.728H83.1841V99.68H87.9841ZM91.6684 101.856H89.1084V91.728H91.6684V101.856ZM48.709 123.344C48.5277 122.768 48.341 122.155 48.149 121.504C47.9677 120.853 47.7863 120.208 47.605 119.568C47.4237 118.928 47.2583 118.331 47.109 117.776C46.9597 117.221 46.8317 116.741 46.725 116.336C46.6183 115.931 46.5437 115.643 46.501 115.472L46.437 115.488C46.469 115.68 46.4957 115.936 46.517 116.256C46.5383 116.565 46.5543 116.896 46.565 117.248C46.5757 117.589 46.581 117.904 46.581 118.192V123.856H44.133V113.728H48.421C48.5703 114.293 48.725 114.891 48.885 115.52C49.0557 116.139 49.221 116.757 49.381 117.376C49.5517 117.984 49.701 118.565 49.829 119.12C49.957 119.664 50.0477 120.139 50.101 120.544H50.133C50.1863 120.139 50.2717 119.664 50.389 119.12C50.517 118.576 50.661 117.995 50.821 117.376C50.981 116.757 51.1463 116.139 51.317 115.52C51.4877 114.891 51.6423 114.293 51.781 113.728H56.005V123.856H53.589V118.192C53.589 117.904 53.5943 117.589 53.605 117.248C53.6157 116.896 53.6317 116.565 53.653 116.256C53.685 115.936 53.7117 115.68 53.733 115.488L53.669 115.472C53.6263 115.643 53.5517 115.931 53.445 116.336C53.3383 116.741 53.205 117.227 53.045 117.792C52.8957 118.347 52.7303 118.944 52.549 119.584C52.3677 120.224 52.181 120.869 51.989 121.52C51.8077 122.16 51.6317 122.768 51.461 123.344H48.709ZM67.2556 123.808V123.856H64.5356C64.461 123.6 64.3703 123.307 64.2636 122.976C64.1676 122.645 64.061 122.293 63.9436 121.92H60.4876C60.2743 122.667 60.077 123.312 59.8956 123.856H57.1756V123.824L60.4556 113.728H63.9756L67.2556 123.808ZM62.1836 115.552C62.077 116.096 61.9223 116.757 61.7196 117.536C61.517 118.315 61.3036 119.109 61.0796 119.92H63.3676C63.133 119.109 62.9143 118.315 62.7116 117.536C62.509 116.757 62.3543 116.096 62.2476 115.552H62.1836ZM70.9419 123.856H68.3819V113.728H73.2139C74.4832 113.728 75.4059 114.016 75.9819 114.592C76.5685 115.157 76.8619 115.995 76.8619 117.104C76.8619 117.936 76.6539 118.651 76.2379 119.248C75.8219 119.835 75.2725 120.203 74.5899 120.352L74.5739 120.4C74.8405 120.571 75.1339 120.853 75.4539 121.248C75.7739 121.643 76.0885 122.075 76.3979 122.544C76.7179 123.003 77.0005 123.435 77.2459 123.84V123.856H74.2699L72.5419 121.296C72.3925 121.072 72.2699 120.912 72.1739 120.816C72.0885 120.72 71.9819 120.661 71.8539 120.64C71.7365 120.619 71.5445 120.608 71.2779 120.608H70.9419V123.856ZM72.7979 115.808H70.9419V118.528H72.7979C73.3312 118.528 73.6992 118.421 73.9019 118.208C74.1152 117.995 74.2219 117.648 74.2219 117.168C74.2219 116.688 74.1152 116.341 73.9019 116.128C73.6992 115.915 73.3312 115.808 72.7979 115.808ZM81.2544 123.856H78.6944V113.728H81.2544V117.968C81.2757 117.968 81.2917 117.968 81.3024 117.968C81.409 117.968 81.5317 117.883 81.6704 117.712C81.8197 117.541 81.953 117.371 82.0704 117.2L84.2144 113.728H86.9984V113.776L85.1744 116.72C85.0144 116.987 84.833 117.275 84.6304 117.584C84.4277 117.883 84.225 118.149 84.0224 118.384C83.8304 118.608 83.6597 118.747 83.5104 118.8V118.848C83.6597 118.912 83.8304 119.051 84.0224 119.264C84.225 119.467 84.4277 119.707 84.6304 119.984C84.8437 120.251 85.0464 120.517 85.2384 120.784L87.3664 123.808V123.856H84.4224L82.4224 120.784V120.8C82.3584 120.693 82.257 120.555 82.1184 120.384C81.9904 120.203 81.8517 120.037 81.7024 119.888C81.5637 119.739 81.441 119.664 81.3344 119.664C81.313 119.664 81.297 119.664 81.2864 119.664C81.2757 119.664 81.265 119.664 81.2544 119.664V123.856ZM88.3975 123.856V113.728H95.9175V115.808H90.9575V117.728H95.2615V119.808H90.9575V121.776H95.9175V123.856H88.3975ZM99.2744 123.856V115.888H96.3944V113.728H104.714V115.888H101.834V123.856H99.2744Z" fill="#010D1E"/>
<path d="M60.9512 101.344C60.7699 100.768 60.5832 100.155 60.3912 99.504C60.2099 98.8533 60.0285 98.208 59.8472 97.568C59.6659 96.928 59.5005 96.3307 59.3512 95.776C59.2019 95.2213 59.0739 94.7413 58.9672 94.336C58.8605 93.9307 58.7859 93.6427 58.7432 93.472L58.6792 93.488C58.7112 93.68 58.7379 93.936 58.7592 94.256C58.7805 94.5653 58.7965 94.896 58.8072 95.248C58.8179 95.5893 58.8232 95.904 58.8232 96.192V101.856H56.3752V91.728H60.6632C60.8125 92.2933 60.9672 92.8907 61.1272 93.52C61.2979 94.1387 61.4632 94.7573 61.6232 95.376C61.7939 95.984 61.9432 96.5653 62.0712 97.12C62.1992 97.664 62.2899 98.1387 62.3432 98.544H62.3752C62.4285 98.1387 62.5139 97.664 62.6312 97.12C62.7592 96.576 62.9032 95.9947 63.0632 95.376C63.2232 94.7573 63.3885 94.1387 63.5592 93.52C63.7299 92.8907 63.8845 92.2933 64.0232 91.728H68.2472V101.856H65.8312V96.192C65.8312 95.904 65.8365 95.5893 65.8472 95.248C65.8579 94.896 65.8739 94.5653 65.8952 94.256C65.9272 93.936 65.9539 93.68 65.9752 93.488L65.9112 93.472C65.8685 93.6427 65.7939 93.9307 65.6872 94.336C65.5805 94.7413 65.4472 95.2267 65.2872 95.792C65.1379 96.3467 64.9725 96.944 64.7912 97.584C64.6099 98.224 64.4232 98.8693 64.2312 99.52C64.0499 100.16 63.8739 100.768 63.7032 101.344H60.9512ZM79.4978 101.808V101.856H76.7778C76.7031 101.6 76.6125 101.307 76.5058 100.976C76.4098 100.645 76.3031 100.293 76.1858 99.92H72.7298C72.5165 100.667 72.3191 101.312 72.1378 101.856H69.4178V101.824L72.6978 91.728H76.2178L79.4978 101.808ZM74.4258 93.552C74.3191 94.096 74.1645 94.7573 73.9618 95.536C73.7591 96.3147 73.5458 97.1093 73.3218 97.92H75.6098C75.3751 97.1093 75.1565 96.3147 74.9538 95.536C74.7511 94.7573 74.5965 94.096 74.4898 93.552H74.4258ZM87.9841 99.68V101.856H80.6241V91.728H83.1841V99.68H87.9841ZM91.6684 101.856H89.1084V91.728H91.6684V101.856ZM48.709 123.344C48.5277 122.768 48.341 122.155 48.149 121.504C47.9677 120.853 47.7863 120.208 47.605 119.568C47.4237 118.928 47.2583 118.331 47.109 117.776C46.9597 117.221 46.8317 116.741 46.725 116.336C46.6183 115.931 46.5437 115.643 46.501 115.472L46.437 115.488C46.469 115.68 46.4957 115.936 46.517 116.256C46.5383 116.565 46.5543 116.896 46.565 117.248C46.5757 117.589 46.581 117.904 46.581 118.192V123.856H44.133V113.728H48.421C48.5703 114.293 48.725 114.891 48.885 115.52C49.0557 116.139 49.221 116.757 49.381 117.376C49.5517 117.984 49.701 118.565 49.829 119.12C49.957 119.664 50.0477 120.139 50.101 120.544H50.133C50.1863 120.139 50.2717 119.664 50.389 119.12C50.517 118.576 50.661 117.995 50.821 117.376C50.981 116.757 51.1463 116.139 51.317 115.52C51.4877 114.891 51.6423 114.293 51.781 113.728H56.005V123.856H53.589V118.192C53.589 117.904 53.5943 117.589 53.605 117.248C53.6157 116.896 53.6317 116.565 53.653 116.256C53.685 115.936 53.7117 115.68 53.733 115.488L53.669 115.472C53.6263 115.643 53.5517 115.931 53.445 116.336C53.3383 116.741 53.205 117.227 53.045 117.792C52.8957 118.347 52.7303 118.944 52.549 119.584C52.3677 120.224 52.181 120.869 51.989 121.52C51.8077 122.16 51.6317 122.768 51.461 123.344H48.709ZM67.2556 123.808V123.856H64.5356C64.461 123.6 64.3703 123.307 64.2636 122.976C64.1676 122.645 64.061 122.293 63.9436 121.92H60.4876C60.2743 122.667 60.077 123.312 59.8956 123.856H57.1756V123.824L60.4556 113.728H63.9756L67.2556 123.808ZM62.1836 115.552C62.077 116.096 61.9223 116.757 61.7196 117.536C61.517 118.315 61.3036 119.109 61.0796 119.92H63.3676C63.133 119.109 62.9143 118.315 62.7116 117.536C62.509 116.757 62.3543 116.096 62.2476 115.552H62.1836ZM70.9419 123.856H68.3819V113.728H73.2139C74.4832 113.728 75.4059 114.016 75.9819 114.592C76.5685 115.157 76.8619 115.995 76.8619 117.104C76.8619 117.936 76.6539 118.651 76.2379 119.248C75.8219 119.835 75.2725 120.203 74.5899 120.352L74.5739 120.4C74.8405 120.571 75.1339 120.853 75.4539 121.248C75.7739 121.643 76.0885 122.075 76.3979 122.544C76.7179 123.003 77.0005 123.435 77.2459 123.84V123.856H74.2699L72.5419 121.296C72.3925 121.072 72.2699 120.912 72.1739 120.816C72.0885 120.72 71.9819 120.661 71.8539 120.64C71.7365 120.619 71.5445 120.608 71.2779 120.608H70.9419V123.856ZM72.7979 115.808H70.9419V118.528H72.7979C73.3312 118.528 73.6992 118.421 73.9019 118.208C74.1152 117.995 74.2219 117.648 74.2219 117.168C74.2219 116.688 74.1152 116.341 73.9019 116.128C73.6992 115.915 73.3312 115.808 72.7979 115.808ZM81.2544 123.856H78.6944V113.728H81.2544V117.968C81.2757 117.968 81.2917 117.968 81.3024 117.968C81.409 117.968 81.5317 117.883 81.6704 117.712C81.8197 117.541 81.953 117.371 82.0704 117.2L84.2144 113.728H86.9984V113.776L85.1744 116.72C85.0144 116.987 84.833 117.275 84.6304 117.584C84.4277 117.883 84.225 118.149 84.0224 118.384C83.8304 118.608 83.6597 118.747 83.5104 118.8V118.848C83.6597 118.912 83.8304 119.051 84.0224 119.264C84.225 119.467 84.4277 119.707 84.6304 119.984C84.8437 120.251 85.0464 120.517 85.2384 120.784L87.3664 123.808V123.856H84.4224L82.4224 120.784V120.8C82.3584 120.693 82.257 120.555 82.1184 120.384C81.9904 120.203 81.8517 120.037 81.7024 119.888C81.5637 119.739 81.441 119.664 81.3344 119.664C81.313 119.664 81.297 119.664 81.2864 119.664C81.2757 119.664 81.265 119.664 81.2544 119.664V123.856ZM88.3975 123.856V113.728H95.9175V115.808H90.9575V117.728H95.2615V119.808H90.9575V121.776H95.9175V123.856H88.3975ZM99.2744 123.856V115.888H96.3944V113.728H104.714V115.888H101.834V123.856H99.2744Z" fill="#010D1E"/>
<path d="M60.9512 101.344C60.7699 100.768 60.5832 100.155 60.3912 99.504C60.2099 98.8533 60.0285 98.208 59.8472 97.568C59.6659 96.928 59.5005 96.3307 59.3512 95.776C59.2019 95.2213 59.0739 94.7413 58.9672 94.336C58.8605 93.9307 58.7859 93.6427 58.7432 93.472L58.6792 93.488C58.7112 93.68 58.7379 93.936 58.7592 94.256C58.7805 94.5653 58.7965 94.896 58.8072 95.248C58.8179 95.5893 58.8232 95.904 58.8232 96.192V101.856H56.3752V91.728H60.6632C60.8125 92.2933 60.9672 92.8907 61.1272 93.52C61.2979 94.1387 61.4632 94.7573 61.6232 95.376C61.7939 95.984 61.9432 96.5653 62.0712 97.12C62.1992 97.664 62.2899 98.1387 62.3432 98.544H62.3752C62.4285 98.1387 62.5139 97.664 62.6312 97.12C62.7592 96.576 62.9032 95.9947 63.0632 95.376C63.2232 94.7573 63.3885 94.1387 63.5592 93.52C63.7299 92.8907 63.8845 92.2933 64.0232 91.728H68.2472V101.856H65.8312V96.192C65.8312 95.904 65.8365 95.5893 65.8472 95.248C65.8579 94.896 65.8739 94.5653 65.8952 94.256C65.9272 93.936 65.9539 93.68 65.9752 93.488L65.9112 93.472C65.8685 93.6427 65.7939 93.9307 65.6872 94.336C65.5805 94.7413 65.4472 95.2267 65.2872 95.792C65.1379 96.3467 64.9725 96.944 64.7912 97.584C64.6099 98.224 64.4232 98.8693 64.2312 99.52C64.0499 100.16 63.8739 100.768 63.7032 101.344H60.9512ZM79.4978 101.808V101.856H76.7778C76.7031 101.6 76.6125 101.307 76.5058 100.976C76.4098 100.645 76.3031 100.293 76.1858 99.92H72.7298C72.5165 100.667 72.3191 101.312 72.1378 101.856H69.4178V101.824L72.6978 91.728H76.2178L79.4978 101.808ZM74.4258 93.552C74.3191 94.096 74.1645 94.7573 73.9618 95.536C73.7591 96.3147 73.5458 97.1093 73.3218 97.92H75.6098C75.3751 97.1093 75.1565 96.3147 74.9538 95.536C74.7511 94.7573 74.5965 94.096 74.4898 93.552H74.4258ZM87.9841 99.68V101.856H80.6241V91.728H83.1841V99.68H87.9841ZM91.6684 101.856H89.1084V91.728H91.6684V101.856ZM48.709 123.344C48.5277 122.768 48.341 122.155 48.149 121.504C47.9677 120.853 47.7863 120.208 47.605 119.568C47.4237 118.928 47.2583 118.331 47.109 117.776C46.9597 117.221 46.8317 116.741 46.725 116.336C46.6183 115.931 46.5437 115.643 46.501 115.472L46.437 115.488C46.469 115.68 46.4957 115.936 46.517 116.256C46.5383 116.565 46.5543 116.896 46.565 117.248C46.5757 117.589 46.581 117.904 46.581 118.192V123.856H44.133V113.728H48.421C48.5703 114.293 48.725 114.891 48.885 115.52C49.0557 116.139 49.221 116.757 49.381 117.376C49.5517 117.984 49.701 118.565 49.829 119.12C49.957 119.664 50.0477 120.139 50.101 120.544H50.133C50.1863 120.139 50.2717 119.664 50.389 119.12C50.517 118.576 50.661 117.995 50.821 117.376C50.981 116.757 51.1463 116.139 51.317 115.52C51.4877 114.891 51.6423 114.293 51.781 113.728H56.005V123.856H53.589V118.192C53.589 117.904 53.5943 117.589 53.605 117.248C53.6157 116.896 53.6317 116.565 53.653 116.256C53.685 115.936 53.7117 115.68 53.733 115.488L53.669 115.472C53.6263 115.643 53.5517 115.931 53.445 116.336C53.3383 116.741 53.205 117.227 53.045 117.792C52.8957 118.347 52.7303 118.944 52.549 119.584C52.3677 120.224 52.181 120.869 51.989 121.52C51.8077 122.16 51.6317 122.768 51.461 123.344H48.709ZM67.2556 123.808V123.856H64.5356C64.461 123.6 64.3703 123.307 64.2636 122.976C64.1676 122.645 64.061 122.293 63.9436 121.92H60.4876C60.2743 122.667 60.077 123.312 59.8956 123.856H57.1756V123.824L60.4556 113.728H63.9756L67.2556 123.808ZM62.1836 115.552C62.077 116.096 61.9223 116.757 61.7196 117.536C61.517 118.315 61.3036 119.109 61.0796 119.92H63.3676C63.133 119.109 62.9143 118.315 62.7116 117.536C62.509 116.757 62.3543 116.096 62.2476 115.552H62.1836ZM70.9419 123.856H68.3819V113.728H73.2139C74.4832 113.728 75.4059 114.016 75.9819 114.592C76.5685 115.157 76.8619 115.995 76.8619 117.104C76.8619 117.936 76.6539 118.651 76.2379 119.248C75.8219 119.835 75.2725 120.203 74.5899 120.352L74.5739 120.4C74.8405 120.571 75.1339 120.853 75.4539 121.248C75.7739 121.643 76.0885 122.075 76.3979 122.544C76.7179 123.003 77.0005 123.435 77.2459 123.84V123.856H74.2699L72.5419 121.296C72.3925 121.072 72.2699 120.912 72.1739 120.816C72.0885 120.72 71.9819 120.661 71.8539 120.64C71.7365 120.619 71.5445 120.608 71.2779 120.608H70.9419V123.856ZM72.7979 115.808H70.9419V118.528H72.7979C73.3312 118.528 73.6992 118.421 73.9019 118.208C74.1152 117.995 74.2219 117.648 74.2219 117.168C74.2219 116.688 74.1152 116.341 73.9019 116.128C73.6992 115.915 73.3312 115.808 72.7979 115.808ZM81.2544 123.856H78.6944V113.728H81.2544V117.968C81.2757 117.968 81.2917 117.968 81.3024 117.968C81.409 117.968 81.5317 117.883 81.6704 117.712C81.8197 117.541 81.953 117.371 82.0704 117.2L84.2144 113.728H86.9984V113.776L85.1744 116.72C85.0144 116.987 84.833 117.275 84.6304 117.584C84.4277 117.883 84.225 118.149 84.0224 118.384C83.8304 118.608 83.6597 118.747 83.5104 118.8V118.848C83.6597 118.912 83.8304 119.051 84.0224 119.264C84.225 119.467 84.4277 119.707 84.6304 119.984C84.8437 120.251 85.0464 120.517 85.2384 120.784L87.3664 123.808V123.856H84.4224L82.4224 120.784V120.8C82.3584 120.693 82.257 120.555 82.1184 120.384C81.9904 120.203 81.8517 120.037 81.7024 119.888C81.5637 119.739 81.441 119.664 81.3344 119.664C81.313 119.664 81.297 119.664 81.2864 119.664C81.2757 119.664 81.265 119.664 81.2544 119.664V123.856ZM88.3975 123.856V113.728H95.9175V115.808H90.9575V117.728H95.2615V119.808H90.9575V121.776H95.9175V123.856H88.3975ZM99.2744 123.856V115.888H96.3944V113.728H104.714V115.888H101.834V123.856H99.2744Z" fill="#010D1E"/>
</svg>
